<svg width="203" height="61" viewBox="0 0 203 61" fill="none" xmlns="http://www.w3.org/2000/svg">
<path d="M195.093 60.7988H8.06603C3.95149 60.7988 0.584961 57.4269 0.584961 53.3057V8.34671C0.584961 4.22543 3.95142 0.853516 8.06603 0.853516H195.093C199.207 0.853516 202.574 4.22543 202.574 8.34671V53.3056C202.574 57.4269 199.207 60.7988 195.093 60.7988" fill="black"/>
<path d="M71.5333 16.2047C71.5333 17.4603 71.162 18.4601 70.4186 19.206C69.574 20.0929 68.4734 20.5366 67.1204 20.5366C65.8247 20.5366 64.723 20.0871 63.8171 19.1866C62.9095 18.2869 62.4565 17.1711 62.4565 15.8399C62.4565 14.5081 62.9095 13.393 63.8171 12.4925C64.723 11.5928 65.8247 11.1426 67.1204 11.1426C67.7633 11.1426 68.3789 11.2685 68.9633 11.5197C69.5477 11.7714 70.0165 12.1056 70.3672 12.5242L69.5781 13.315C68.9838 12.6038 68.1655 12.2484 67.1204 12.2484C66.1755 12.2484 65.3583 12.581 64.6687 13.2466C63.979 13.9128 63.6342 14.7768 63.6342 15.8399C63.6342 16.9031 63.979 17.767 64.6687 18.4333C65.3583 19.0989 66.1754 19.4314 67.1204 19.4314C68.1229 19.4314 68.9586 19.0971 69.6278 18.4274C70.0621 17.9912 70.3133 17.3848 70.3805 16.6062H67.1203V15.5261H71.4706C71.5126 15.761 71.5331 15.9863 71.5331 16.2047" fill="white"/>
<path d="M71.5334 16.2047H71.3837C71.3825 17.4316 71.0247 18.3846 70.3128 19.1L70.3113 19.1012L70.3106 19.1024C69.4929 19.9587 68.4419 20.3849 67.1204 20.3867C65.8593 20.3849 64.8037 19.9541 63.9223 19.0807C63.0428 18.2055 62.6079 17.1371 62.6062 15.8399C62.6079 14.5421 63.0428 13.4743 63.9223 12.5997C64.8037 11.7257 65.8593 11.2942 67.1204 11.2924C67.7441 11.2924 68.338 11.4143 68.9043 11.6572C69.4712 11.9019 69.919 12.2227 70.2527 12.6208L70.3672 12.5241L70.2615 12.4182L69.4724 13.2096L69.5781 13.315L69.6934 13.2191C69.0714 12.4726 68.1984 12.0963 67.1205 12.0985C66.1405 12.0973 65.2784 12.4481 64.5652 13.1389C63.8453 13.832 63.4835 14.7446 63.4847 15.8399C63.4835 16.9352 63.8453 17.8478 64.5652 18.5409C65.2784 19.2317 66.1405 19.5824 67.1204 19.5812C68.1561 19.583 69.0388 19.2311 69.7336 18.5334C70.1977 18.0673 70.4608 17.4217 70.5297 16.619L70.5437 16.4563H67.2701V15.6759H71.4707V15.5261L71.3234 15.5524C71.3643 15.7797 71.3836 15.9956 71.3836 16.2047H71.6829C71.6829 15.9769 71.6618 15.7428 71.618 15.4993L71.5958 15.3762H66.9709V16.756H70.3806V16.6061L70.2316 16.5933C70.1656 17.3473 69.9259 17.9152 69.5221 18.3215C68.8792 18.9631 68.0902 19.2797 67.1205 19.2815C66.2106 19.2803 65.4385 18.9665 64.7728 18.3255C64.1136 17.6868 63.7856 16.8714 63.784 15.8399C63.7856 14.8084 64.1136 13.9929 64.7728 13.3542C65.4385 12.7133 66.2105 12.3995 67.1205 12.3982C68.1323 12.4007 68.8963 12.7355 69.4638 13.4116L69.569 13.5369L70.4731 12.6301L70.5701 12.533L70.4818 12.4281C70.1142 11.9892 69.6244 11.6407 69.0224 11.3821C68.4193 11.1227 67.7828 10.9927 67.1205 10.9927C65.7904 10.9915 64.6425 11.4598 63.7114 12.3866C62.7769 13.3115 62.3059 14.4742 62.3071 15.8399C62.3059 17.205 62.7769 18.3683 63.712 19.2938C64.6425 20.2199 65.7904 20.6877 67.1205 20.6865C68.5057 20.6877 69.6548 20.2269 70.5269 19.3095L70.4186 19.2059L70.5244 19.3119C71.2994 18.5363 71.684 17.4884 71.6829 16.2047H71.5333M78.4298 12.4486H74.3415V15.2996H78.0284V16.3801H74.3415V19.2311H78.4298V20.3358H73.189V11.344H78.4298V12.4486" fill="white"/>
<path d="M78.4299 12.4483V12.2985H74.1921V15.4492H77.8789V16.2296L74.192 16.23V19.3807H78.2803V20.1856H73.3388V11.4936H78.2803V12.4483H78.4299V12.2985V12.4483H78.5795V11.1938H73.0396V20.4853H78.5795V19.081H74.4913V16.5297H78.1781V15.1495H74.4913V12.5982H78.5795V12.4483H78.4299M83.2944 20.3356H82.1401V12.4483H79.6327V11.3436H85.8018V12.4483H83.2944V20.3354" fill="white"/>
<path d="M83.2942 20.3356V20.1856H82.2895V12.2985H79.7822V11.4936H85.6519V12.2985H83.1446V20.3355H83.2942V20.1856V20.3355H83.4438V12.5982H85.9511V11.1938H79.4829V12.5981H81.9902V20.4853H83.4438V20.3354H83.2942M90.265 20.3356V11.3436H91.4182V20.3354H90.265" fill="white"/>
<path d="M90.2648 20.3356H90.4145V11.4936H91.2683V20.1856H90.2648V20.3355H90.4145H90.2648V20.4853H91.5675V11.1938H90.1152V20.4853H90.2648V20.3355M96.5348 20.3356H95.3806V12.4483H92.8733V11.3436H99.0422V12.4483H96.5348V20.3354" fill="white"/>
<path d="M96.5347 20.3359V20.1859H95.5301V12.2988H93.0229V11.494H98.8925V12.2988H96.3852V20.3358H96.5347V20.1859V20.3358H96.6844V12.5985H99.1917V11.1942H92.7236V12.5985H95.2308V20.4856H96.6844V20.3357H96.5347M104.99 18.4211C105.654 19.0948 106.467 19.4313 107.429 19.4313C108.39 19.4313 109.203 19.0948 109.867 18.4211C110.532 17.7473 110.865 16.886 110.865 15.8399C110.865 14.7939 110.532 13.9326 109.867 13.2588C109.203 12.5851 108.39 12.2484 107.429 12.2484C106.467 12.2484 105.654 12.5851 104.99 13.2588C104.326 13.9326 103.993 14.7939 103.993 15.8399C103.993 16.886 104.326 17.7473 104.99 18.4211ZM110.72 19.1738C109.838 20.0828 108.74 20.5366 107.429 20.5366C106.116 20.5366 105.019 20.0828 104.138 19.1738C103.255 18.2657 102.815 17.1542 102.815 15.8399C102.815 14.5256 103.255 13.4139 104.138 12.5061C105.019 11.5968 106.116 11.1426 107.429 11.1426C108.733 11.1426 109.828 11.5992 110.714 12.5119C111.6 13.4245 112.043 14.5338 112.043 15.8399C112.043 17.1542 111.601 18.2657 110.72 19.1738Z" fill="white"/>
<path d="M104.99 18.421L104.883 18.5264C105.573 19.2271 106.432 19.583 107.429 19.5812C108.425 19.583 109.286 19.2271 109.974 18.5264C110.667 17.8249 111.016 16.9176 111.015 15.8399C111.016 14.7622 110.667 13.8548 109.974 13.1534C109.286 12.4527 108.425 12.0968 107.429 12.0985C106.432 12.0968 105.573 12.4527 104.883 13.1534C104.191 13.8548 103.842 14.7622 103.844 15.8399C103.842 16.9175 104.191 17.8249 104.883 18.5264L104.99 18.421L105.096 18.3156C104.461 17.6687 104.144 16.8549 104.143 15.8399C104.144 14.8249 104.461 14.0111 105.096 13.3641C105.737 12.7174 106.502 12.4001 107.429 12.3983C108.355 12.4001 109.122 12.7174 109.761 13.3641C110.397 14.0111 110.714 14.8249 110.715 15.8399C110.714 16.8549 110.397 17.6687 109.761 18.3156C109.122 18.9625 108.355 19.2797 107.429 19.2814C106.502 19.2797 105.737 18.9625 105.096 18.3156L104.99 18.421ZM110.72 19.1737L110.613 19.0696C109.756 19.95 108.706 20.385 107.429 20.3868C106.151 20.3849 105.101 19.95 104.245 19.0696L104.241 19.0649L104.245 19.0696C103.389 18.1862 102.966 17.1208 102.965 15.8399C102.966 14.559 103.389 13.4936 104.245 12.6102C105.101 11.7297 106.15 11.2942 107.429 11.2925C108.698 11.2942 109.745 11.7315 110.608 12.6166C111.467 13.5041 111.892 14.5678 111.893 15.8399C111.892 17.1208 111.468 18.1862 110.613 19.0696L110.72 19.1737L110.828 19.2779C111.735 18.3448 112.194 17.1875 112.193 15.8399C112.194 14.5 111.733 13.345 110.822 12.4077C109.91 11.4668 108.768 10.9911 107.429 10.9927C106.082 10.9911 104.937 11.4646 104.031 12.4019V12.4012C103.122 13.3349 102.665 14.4923 102.666 15.8399C102.665 17.1875 103.122 18.3448 104.031 19.2785L104.035 19.2827L104.031 19.2779C104.937 20.2151 106.082 20.6877 107.429 20.6865C108.775 20.6877 109.92 20.2151 110.828 19.2779L110.72 19.1737V19.1737ZM113.662 20.3358V11.3439H115.066L119.429 18.3389H119.479L119.429 16.6061V11.3439H120.583V20.3357H119.379L114.815 13.0017H114.765L114.815 14.7352V20.3357H113.662" fill="white"/>
<path d="M113.662 20.3356H113.812V11.4936H114.983L119.346 18.4886H119.632L119.579 16.6036V11.4936H120.434V20.1856H119.462L114.898 12.8517H114.612L114.665 14.7374V20.1856H113.662V20.3355H113.812H113.662V20.4853H114.964V14.7326L114.915 12.9975L114.765 13.0015V13.1514H114.815V13.0015L114.688 13.0812L119.296 20.4853H120.733V11.1938H119.28V16.6076L119.329 18.3427L119.479 18.3387V18.1888H119.429V18.3387L119.556 18.2592L115.149 11.1938H113.513V20.4853H113.662V20.3355M160.584 45.8122H163.376V27.0776H160.584L160.584 45.8122ZM185.731 33.8262L182.531 41.9486H182.435L179.114 33.8262H176.106L181.087 45.1788L178.247 51.4936H181.16L188.836 33.8262L185.731 33.8262ZM169.898 43.6844C168.983 43.6844 167.708 43.2265 167.708 42.0933C167.708 40.6472 169.297 40.0929 170.667 40.0929C171.896 40.0929 172.472 40.358 173.218 40.7199C173.002 42.455 171.51 43.6844 169.898 43.6844V43.6844ZM170.235 33.4163C168.214 33.4163 166.12 34.3084 165.254 36.2849L167.732 37.321C168.261 36.2849 169.247 35.947 170.283 35.947C171.727 35.947 173.195 36.8152 173.218 38.3578V38.5504C172.713 38.2611 171.631 37.8274 170.307 37.8274C167.636 37.8274 164.916 39.2973 164.916 42.0452C164.916 44.5519 167.106 46.167 169.56 46.167C171.438 46.167 172.472 45.3234 173.123 44.3353H173.218V45.7813H175.913V38.5983C175.913 35.2727 173.435 33.4163 170.235 33.4163V33.4163ZM152.981 36.1068H149.01V29.685H152.981C155.068 29.685 156.253 31.416 156.253 32.8958C156.253 34.3477 155.068 36.1068 152.981 36.1068ZM152.909 27.0776H146.219V45.8122H149.01V38.7143H152.909C156.003 38.7143 159.045 36.4704 159.045 32.8958C159.045 29.3215 156.003 27.0776 152.909 27.0776V27.0776ZM116.43 43.6878C114.501 43.6878 112.886 42.0704 112.886 39.8487C112.886 37.6038 114.501 35.9617 116.43 35.9617C118.334 35.9617 119.828 37.6038 119.828 39.8487C119.828 42.0704 118.334 43.6878 116.43 43.6878H116.43ZM119.635 34.8753H119.539C118.912 34.127 117.707 33.451 116.188 33.451C113.007 33.451 110.09 36.2515 110.09 39.8487C110.09 43.4221 113.006 46.1986 116.188 46.1986C117.707 46.1986 118.912 45.5224 119.539 44.7503H119.635V45.6676C119.635 48.1065 118.334 49.4102 116.237 49.4102C114.525 49.4102 113.465 48.1785 113.03 47.1405L110.596 48.1545C111.295 49.8445 113.151 51.921 116.237 51.921C119.515 51.921 122.287 49.9891 122.287 45.2813V33.8373H119.635V34.8753ZM124.215 45.8122H127.011V27.0769H124.215V45.8122ZM131.133 39.6316C131.061 37.1687 133.038 35.9136 134.46 35.9136C135.569 35.9136 136.509 36.4686 136.822 37.2661L131.133 39.6316ZM139.811 37.5071C139.281 36.0822 137.665 33.451 134.363 33.451C131.085 33.451 128.361 36.0343 128.361 39.8248C128.361 43.3981 131.061 46.1986 134.676 46.1986C137.594 46.1986 139.281 44.4119 139.98 43.3739L137.811 41.9251C137.088 42.9876 136.099 43.6878 134.676 43.6878C133.254 43.6878 132.242 43.0357 131.591 41.7565L140.1 38.2313L139.811 37.5071ZM72.0203 35.4067V38.1107H78.4802C78.2874 39.6316 77.7812 40.7421 77.0097 41.5148C76.0699 42.4567 74.5995 43.4946 72.0203 43.4946C68.0429 43.4946 64.9337 40.2836 64.9337 36.3C64.9337 32.3163 68.0429 29.1049 72.0203 29.1049C74.1658 29.1049 75.7321 29.9501 76.8893 31.0366L78.7935 29.1294C77.1787 27.5839 75.0331 26.4009 72.0203 26.4009C66.5725 26.4009 61.9927 30.8435 61.9927 36.3C61.9927 41.7565 66.5725 46.1986 72.0203 46.1986C74.9613 46.1986 77.1787 45.2333 78.914 43.4221C80.6978 41.6354 81.2524 39.1246 81.2524 37.0968C81.2524 36.4686 81.2044 35.8896 81.1074 35.4067H72.0203ZM88.5967 43.6878C86.6679 43.6878 85.0046 42.0943 85.0046 39.8248C85.0046 37.5311 86.6679 35.9617 88.5967 35.9617C90.5247 35.9617 92.1881 37.5311 92.1881 39.8248C92.1881 42.0943 90.5247 43.6878 88.5967 43.6878ZM88.5967 33.451C85.077 33.451 82.2085 36.1308 82.2085 39.8248C82.2085 43.4946 85.077 46.1986 88.5967 46.1986C92.1156 46.1986 94.9842 43.4946 94.9842 39.8248C94.9842 36.1308 92.1156 33.451 88.5967 33.451ZM102.531 43.6878C100.603 43.6878 98.9397 42.0943 98.9397 39.8248C98.9397 37.5311 100.603 35.9617 102.531 35.9617C104.459 35.9617 106.123 37.5311 106.123 39.8248C106.123 42.0943 104.459 43.6878 102.531 43.6878H102.531ZM102.531 33.451C99.0117 33.451 96.1438 36.1308 96.1438 39.8248C96.1438 43.4946 99.0117 46.1986 102.531 46.1986C106.05 46.1986 108.919 43.4946 108.919 39.8248C108.919 36.1308 106.05 33.451 102.531 33.451H102.531Z" fill="white"/>
<path d="M16.3082 12.2604C15.8061 12.7142 15.5063 13.471 15.5063 14.4756V14.2485V47.3999V47.1815C15.5063 48.1093 15.7634 48.8258 16.1988 49.2872L16.3099 49.3938V49.3943C16.6623 49.7128 17.1142 49.8819 17.632 49.8813C18.1381 49.8813 18.7074 49.7198 19.3082 49.3786L41.0261 37.0189L48.486 32.773C49.4334 32.2339 49.9653 31.5384 50.0542 30.83V30.8271C49.9653 30.1171 49.4334 29.4221 48.4861 28.883L41.0255 24.6376L19.3083 12.2779C18.7062 11.9361 18.1364 11.7739 17.6291 11.7739C17.1118 11.7739 16.6606 11.9425 16.3083 12.2604H16.3082Z" fill="#00C1FF"/>
<path d="M16.31 49.3936L16.1988 49.287C15.7634 48.8256 15.5063 48.1091 15.5063 47.1813V47.3997V14.2565V14.4754C15.5063 13.4708 15.8061 12.7139 16.3082 12.2602L34.846 30.8275L16.31 49.3936Z" fill="url(#paint0_linear_695_2139)"/>
<path d="M41.0263 37.0186L34.8462 30.8274L41.0257 24.6373L48.4863 28.8826C49.4336 29.4218 49.9655 30.1167 50.0544 30.8268V30.8296C49.9655 31.538 49.4336 32.2336 48.4863 32.7726L41.0264 37.0185" fill="url(#paint1_linear_695_2139)"/>
<path d="M17.632 49.8809C17.1142 49.8813 16.6624 49.7121 16.3101 49.3937V49.3932L34.846 30.8271L41.0261 37.0183L19.3082 49.378C18.7074 49.7193 18.1381 49.8809 17.632 49.8809Z" fill="url(#paint2_linear_695_2139)"/>
<path d="M34.846 30.8276L16.3081 12.2603C16.6605 11.9424 17.1118 11.7739 17.6289 11.7739C18.1363 11.7739 18.7061 11.936 19.3082 12.2779L41.0255 24.6375L34.8459 30.8276" fill="url(#paint3_linear_695_2139)"/>
<path d="M17.6325 50.1006C17.1147 50.1006 16.6622 49.9314 16.3098 49.613L16.3092 49.6135C16.3077 49.612 16.3062 49.6107 16.3045 49.6095L16.2082 49.5152C16.2051 49.5122 16.2023 49.5088 16.1987 49.5053L16.3099 49.394C16.6622 49.7124 17.114 49.8816 17.632 49.881C18.1379 49.881 18.7073 49.7195 19.3081 49.3782L41.0259 37.0186L41.1651 37.158L41.0242 37.2381L19.308 49.5971C18.7605 49.908 18.2396 50.0701 17.7692 50.0972C17.7236 50.0994 17.6781 50.1005 17.6325 50.1005" fill="url(#paint4_linear_695_2139)"/>
<path d="M16.1988 49.5054C15.7634 49.044 15.5063 48.3281 15.5063 47.3997V47.1813C15.5063 48.1091 15.7634 48.8256 16.1988 49.287L16.3099 49.3936L16.1988 49.5054" fill="url(#paint5_linear_695_2139)"/>
<path d="M41.1655 37.1581L41.0264 37.0187L48.4863 32.7728C49.4337 32.2338 49.9656 31.5383 50.0545 30.8299C50.0545 31.0898 49.9966 31.3498 49.8816 31.6027C49.6495 32.1126 49.1843 32.5944 48.4864 32.9918L41.1655 37.1582" fill="url(#paint6_linear_695_2139)"/>
<path d="M50.0541 30.8267C49.9652 30.1166 49.4334 29.4217 48.486 28.8825L41.0254 24.6371L41.1645 24.4977H41.1651L48.486 28.6641C49.5305 29.2589 50.0535 30.0427 50.0541 30.8267" fill="url(#paint7_linear_695_2139)"/>
<path d="M15.5063 14.4756V14.2466C15.5063 14.164 15.5086 14.0833 15.5128 14.0049V14.0013C15.5128 14.0002 15.5128 13.9991 15.5132 13.9979V13.989C15.5583 13.1899 15.8061 12.5666 16.1988 12.1503L16.3082 12.2603C15.8061 12.7141 15.5063 13.471 15.5063 14.4756Z" fill="url(#paint8_linear_695_2139)"/>
<path d="M41.0253 24.6372L19.3081 12.2774C18.706 11.9356 18.1363 11.7735 17.629 11.7735C17.1117 11.7735 16.6604 11.9421 16.3081 12.26L16.1987 12.1499C16.2329 12.1137 16.2684 12.0788 16.3051 12.0452C16.3063 12.044 16.3081 12.0428 16.3093 12.0416C16.6588 11.7261 17.1053 11.5576 17.6179 11.5545H17.629C18.1363 11.5545 18.706 11.7167 19.3081 12.0587L41.1651 24.4973L41.1645 24.4978L41.0253 24.6372" fill="url(#paint9_linear_695_2139)"/>
<defs>
<linearGradient id="paint0_linear_695_2139" x1="27.3531" y1="13.9062" x2="11.3777" y2="29.9073" gradientUnits="userSpaceOnUse">
<stop stop-color="#00A0FF"/>
<stop offset="0.00657" stop-color="#00A1FF"/>
<stop offset="0.2601" stop-color="#00BEFF"/>
<stop offset="0.5122" stop-color="#00D2FF"/>
<stop offset="0.7604" stop-color="#00DFFF"/>
<stop offset="1" stop-color="#00E3FF"/>
</linearGradient>
<linearGradient id="paint1_linear_695_2139" x1="51.2087" y1="30.7204" x2="15.0049" y2="30.7204" gradientUnits="userSpaceOnUse">
<stop stop-color="#FFE000"/>
<stop offset="0.4087" stop-color="#FFBD00"/>
<stop offset="0.7754" stop-color="#FFA500"/>
<stop offset="1" stop-color="#FF9C00"/>
</linearGradient>
<linearGradient id="paint2_linear_695_2139" x1="37.745" y1="36.7135" x2="10.6735" y2="63.6306" gradientUnits="userSpaceOnUse">
<stop stop-color="#FF3A44"/>
<stop offset="1" stop-color="#C31162"/>
</linearGradient>
<linearGradient id="paint3_linear_695_2139" x1="11.5304" y1="9.50765" x2="23.5956" y2="21.5225" gradientUnits="userSpaceOnUse">
<stop stop-color="#32A071"/>
<stop offset="0.0685" stop-color="#2DA771"/>
<stop offset="0.4762" stop-color="#15CF74"/>
<stop offset="0.8009" stop-color="#06E775"/>
<stop offset="1" stop-color="#00F076"/>
</linearGradient>
<linearGradient id="paint4_linear_695_2139" x1="37.7314" y1="41.0082" x2="16.0511" y2="62.7236" gradientUnits="userSpaceOnUse">
<stop stop-color="#CC2E36"/>
<stop offset="1" stop-color="#9C0E4E"/>
</linearGradient>
<linearGradient id="paint5_linear_695_2139" x1="17.9759" y1="13.9062" x2="3.90174" y2="28.0032" gradientUnits="userSpaceOnUse">
<stop stop-color="#008DE0"/>
<stop offset="0.00657" stop-color="#008DE0"/>
<stop offset="0.2601" stop-color="#00A7E0"/>
<stop offset="0.5122" stop-color="#00B8E0"/>
<stop offset="0.7604" stop-color="#00C4E0"/>
<stop offset="1" stop-color="#00C7E0"/>
</linearGradient>
<linearGradient id="paint6_linear_695_2139" x1="51.2089" y1="30.8285" x2="15.005" y2="30.8285" gradientUnits="userSpaceOnUse">
<stop stop-color="#E0C500"/>
<stop offset="0.4087" stop-color="#E0A600"/>
<stop offset="0.7754" stop-color="#E09100"/>
<stop offset="1" stop-color="#E08900"/>
</linearGradient>
<linearGradient id="paint7_linear_695_2139" x1="51.2085" y1="30.8281" x2="15.0047" y2="30.8281" gradientUnits="userSpaceOnUse">
<stop stop-color="#FFE840"/>
<stop offset="0.4087" stop-color="#FFCE40"/>
<stop offset="0.7754" stop-color="#FFBC40"/>
<stop offset="1" stop-color="#FFB540"/>
</linearGradient>
<linearGradient id="paint8_linear_695_2139" x1="17.9606" y1="13.9319" x2="4.40472" y2="26.9214" gradientUnits="userSpaceOnUse">
<stop stop-color="#40B8FF"/>
<stop offset="0.00657" stop-color="#40B9FF"/>
<stop offset="0.2601" stop-color="#40CEFF"/>
<stop offset="0.5122" stop-color="#40DDFF"/>
<stop offset="0.7604" stop-color="#40E7FF"/>
<stop offset="1" stop-color="#40EAFF"/>
</linearGradient>
<linearGradient id="paint9_linear_695_2139" x1="11.5033" y1="13.4339" x2="21.1845" y2="23.1309" gradientUnits="userSpaceOnUse">
<stop stop-color="#65B895"/>
<stop offset="0.0685" stop-color="#62BD95"/>
<stop offset="0.4762" stop-color="#50DB97"/>
<stop offset="0.8009" stop-color="#44ED98"/>
<stop offset="1" stop-color="#40F498"/>
</linearGradient>
</defs>
</svg>
