<svg width="1470" height="455" viewBox="0 0 1470 455" fill="none" xmlns="http://www.w3.org/2000/svg">
<path d="M223.588 97.9059C223.588 125.734 213.991 148.925 194.799 167.477C175.927 185.71 146.979 194.826 107.955 194.826H43.6619V334.448H0V0.0263672H107.955C145.7 0.0263672 174.328 9.1426 193.84 27.375C213.672 45.6075 223.588 69.1178 223.588 97.9059ZM107.955 158.841C132.265 158.841 150.178 153.563 161.693 143.007C173.208 132.452 178.966 117.418 178.966 97.9059C178.966 56.6429 155.296 36.0115 107.955 36.0115H43.6619V158.841H107.955Z" fill="white"/>
<path d="M311.44 131.492C319.437 114.539 331.272 101.744 346.945 93.1079C362.939 84.4714 382.61 80.1532 405.961 80.1532V113.26L397.804 112.78C371.255 112.78 350.464 120.936 335.43 137.25C320.396 153.563 312.879 176.433 312.879 205.861V334.448H278.813V82.0724H311.44V131.492Z" fill="white"/>
<path d="M558.86 336.847C534.55 336.847 512.639 331.409 493.127 320.534C473.615 309.338 458.262 293.985 447.066 274.473C435.871 254.961 430.273 232.89 430.273 208.26C430.273 183.63 435.871 161.56 447.066 142.048C458.262 122.536 473.615 107.342 493.127 96.4665C512.639 85.591 534.55 80.1532 558.86 80.1532C583.17 80.1532 605.081 85.591 624.593 96.4665C644.105 107.342 659.299 122.536 670.174 142.048C681.369 161.56 686.967 183.63 686.967 208.26C686.967 232.89 681.369 254.961 670.174 274.473C659.299 293.985 644.105 309.338 624.593 320.534C605.081 331.409 583.17 336.847 558.86 336.847ZM558.86 306.62C576.773 306.62 592.766 302.621 606.84 294.625C621.234 286.308 632.43 274.633 640.426 259.599C648.423 244.565 652.421 227.452 652.421 208.26C652.421 189.068 648.423 171.955 640.426 156.921C632.43 141.888 621.234 130.372 606.84 122.376C592.766 114.059 576.773 109.901 558.86 109.901C540.948 109.901 524.794 114.059 510.4 122.376C496.326 130.372 485.131 141.888 476.814 156.921C468.817 171.955 464.819 189.068 464.819 208.26C464.819 227.452 468.817 244.565 476.814 259.599C485.131 274.633 496.326 286.308 510.4 294.625C524.794 302.621 540.948 306.62 558.86 306.62Z" fill="white"/>
<path d="M875.507 80.1532C907.174 80.1532 932.283 89.4294 950.836 107.982C969.708 126.214 979.144 152.923 979.144 188.109V334.448H945.078V191.467C945.078 165.238 938.521 145.246 925.406 131.492C912.291 117.738 893.579 110.861 869.269 110.861C842.08 110.861 820.489 119.017 804.496 135.33C788.822 151.324 780.986 173.555 780.986 202.023V334.448H746.92V82.0724H779.546V128.613C788.823 113.26 801.617 101.424 817.93 93.1079C834.564 84.4714 853.756 80.1532 875.507 80.1532Z" fill="white"/>
<path d="M1194.94 319.094C1188.54 324.852 1180.54 329.33 1170.95 332.529C1161.67 335.408 1151.92 336.847 1141.68 336.847C1118.01 336.847 1099.78 330.45 1086.98 317.655C1074.19 304.86 1067.79 286.788 1067.79 263.437V110.861H1022.69V82.0724H1067.79V26.8953H1101.86V82.0724H1178.63V110.861H1101.86V261.518C1101.86 276.552 1105.54 288.067 1112.89 296.064C1120.57 303.741 1131.44 307.579 1145.52 307.579C1152.56 307.579 1159.27 306.46 1165.67 304.221C1172.39 301.981 1178.15 298.783 1182.94 294.625L1194.94 319.094Z" fill="white"/>
<path d="M1341.61 336.847C1317.3 336.847 1295.39 331.409 1275.88 320.534C1256.37 309.338 1241.01 293.985 1229.82 274.473C1218.62 254.961 1213.02 232.89 1213.02 208.26C1213.02 183.63 1218.62 161.56 1229.82 142.048C1241.01 122.536 1256.37 107.342 1275.88 96.4665C1295.39 85.591 1317.3 80.1532 1341.61 80.1532C1365.92 80.1532 1387.83 85.591 1407.34 96.4665C1426.86 107.342 1442.05 122.536 1452.93 142.048C1464.12 161.56 1469.72 183.63 1469.72 208.26C1469.72 232.89 1464.12 254.961 1452.93 274.473C1442.05 293.985 1426.86 309.338 1407.34 320.534C1387.83 331.409 1365.92 336.847 1341.61 336.847ZM1341.61 306.62C1359.52 306.62 1375.52 302.621 1389.59 294.625C1403.99 286.308 1415.18 274.633 1423.18 259.599C1431.17 244.565 1435.17 227.452 1435.17 208.26C1435.17 189.068 1431.17 171.955 1423.18 156.921C1415.18 141.888 1403.99 130.372 1389.59 122.376C1375.52 114.059 1359.52 109.901 1341.61 109.901C1323.7 109.901 1307.55 114.059 1293.15 122.376C1279.08 130.372 1267.88 141.888 1259.57 156.921C1251.57 171.955 1247.57 189.068 1247.57 208.26C1247.57 227.452 1251.57 244.565 1259.57 259.599C1267.88 274.633 1279.08 286.308 1293.15 294.625C1307.55 302.621 1323.7 306.62 1341.61 306.62Z" fill="white"/>
<path d="M433.26 420.814H687.555V455H433.26V420.814Z" fill="white"/>
</svg>
