<svg width="601" height="600" viewBox="0 0 601 600" fill="none" xmlns="http://www.w3.org/2000/svg">
<rect width="601" height="600" rx="30" fill="white"/>
<path d="M301.047 396.98C251.688 396.247 209.758 380.509 177.442 343.346C156.657 319.459 144.9 291.31 141.318 259.953C137.097 222.87 142.743 187.505 162.183 155.083C187.682 112.527 225.883 88.8394 274.443 82.0087C315.161 76.2832 354.108 82.4614 389.247 104.884C428.274 129.797 450.697 165.921 457.78 211.446C463.2 246.225 459.365 279.966 443.347 311.669C419.3 359.244 380.1 386.021 327.904 394.649C318.677 396.167 309.369 396.354 301.061 396.966L301.047 396.98Z" fill="black"/>
<path d="M300.921 358.313C237.114 358.379 196.103 315.584 188.114 258.009C183.8 226.998 188.527 197.319 205.025 170.409C226.395 135.55 258.525 119.372 298.963 118.879C359.88 118.147 407.056 160.888 413.061 221.592C416.084 252.084 411.623 280.938 395.365 307.142C374.926 340.084 341.572 357.78 300.921 358.313Z" fill="#FEFEFE"/>
<path d="M452.796 496.511H149.316V520.744H452.796V496.511Z" fill="black"/>
</svg>
